{"glyphs":{":":{"x_min":0,"x_max":260,"ha":260,"o":"m 132 -14 q 177 -14 206 13 q 231 35 231 72 q 231 107 206 130 q 180 154 133 154 q 85 154 57 131 q 29 108 29 73 q 29 36 60 11 q 91 -14 132 -14 z m 29 495 q 28 499 28 507 q 28 543 56 566 q 85 590 133 590 q 178 590 206 564 q 229 542 229 507 q 229 467 200 444 q 171 422 133 422 q 89 422 62 442 q 34 461 29 495 z"},"$":{"x_min":0,"x_max":492,"ha":492,"o":"m 206 729 l 206 779 l 310 779 l 310 731 q 335 731 350 728 q 352 728 404 714 l 447 704 l 447 494 l 326 494 l 324 501 l 319 520 q 298 583 266 583 q 263 583 255 581 q 230 573 230 549 q 230 542 233 532 q 236 521 250 505 l 263 493 l 270 487 l 291 467 l 311 450 l 319 444 l 359 411 q 417 364 441 329 q 465 294 474 248 q 479 220 479 217 q 479 207 479 197 q 479 125 440 74 q 400 23 325 -2 l 312 -6 l 312 -54 l 202 -54 l 202 -15 q 159 -15 107 -3 q 98 -1 49 12 l 27 19 l 27 272 l 155 272 l 155 251 q 155 205 163 180 q 171 154 188 140 q 204 127 222 127 q 250 127 262 152 q 268 164 268 181 q 268 195 263 214 q 258 234 240 256 q 223 278 183 309 l 174 316 l 138 346 l 113 366 q 72 403 55 427 q 38 451 30 482 q 21 514 21 545 q 21 608 55 651 q 84 688 124 708 q 165 729 206 729 z"},"?":{"x_min":0,"x_max":422,"ha":422,"o":"m 78 73 q 78 35 105 10 q 132 -14 180 -14 q 226 -14 255 13 q 280 35 280 72 q 280 108 254 131 q 229 154 182 154 q 134 154 106 131 q 78 108 78 73 z m 14 513 l 14 708 l 24 710 l 49 717 q 83 725 106 728 q 128 732 146 732 q 270 732 335 686 q 400 640 400 563 q 400 542 396 518 q 391 494 378 470 q 364 445 330 403 l 316 386 q 293 357 281 332 q 269 308 261 276 l 257 257 l 252 218 l 251 210 l 248 189 l 119 189 l 115 208 q 102 276 102 308 q 102 355 133 411 l 145 430 l 147 434 l 164 460 l 182 488 l 196 510 l 200 517 q 208 533 208 545 q 208 562 198 573 q 188 584 170 584 q 155 584 144 574 q 132 565 120 539 l 114 527 l 111 520 l 109 513 z"},"'":{"x_min":0,"x_max":216,"ha":216,"o":"m 34 474 l 56 720 l 182 720 l 160 474 z"},"a":{"x_min":0,"x_max":460,"ha":460,"o":"m 182 365 l 37 365 l 37 379 q 37 476 74 528 q 110 580 186 594 q 194 596 210 598 q 226 599 242 599 q 323 599 368 550 q 413 501 413 416 l 413 192 l 413 165 q 413 138 438 138 l 442 138 l 442 37 q 438 31 426 21 q 387 -14 342 -14 q 283 -14 252 42 l 245 55 l 242 62 l 234 48 q 202 1 163 -10 q 149 -13 146 -14 q 140 -15 129 -15 q 80 -15 51 28 q 22 70 22 153 q 22 240 49 278 q 76 315 156 338 q 206 353 224 368 q 242 383 242 409 q 242 420 241 426 q 236 450 214 450 q 205 450 198 446 q 182 437 182 408 l 181 377 q 181 371 182 365 z m 232 281 l 205 264 q 196 258 194 248 q 191 239 191 203 l 192 167 l 193 153 q 194 135 214 132 q 235 132 240 147 l 241 152 l 241 169 l 241 283 q 236 282 232 281 z"},"L":{"x_min":0,"x_max":480,"ha":480,"o":"m 14 0 l 14 108 l 21 108 l 28 108 q 49 108 49 130 l 50 135 l 50 583 l 49 590 q 49 612 28 612 l 24 612 l 14 612 l 14 720 l 274 720 l 274 612 l 267 612 l 259 612 q 237 612 237 590 l 237 583 l 237 144 l 286 144 q 316 144 326 154 q 337 163 343 198 l 346 213 l 353 275 l 480 275 l 480 0 z"},"3":{"x_min":0,"x_max":469,"ha":469,"o":"m 21 236 l 159 236 l 158 229 l 158 217 l 158 208 l 158 192 q 158 168 171 153 q 184 138 203 138 q 210 138 222 142 l 234 148 q 245 157 250 171 q 256 185 256 215 l 257 244 q 253 286 236 300 q 220 313 172 313 l 160 312 l 160 442 l 173 441 q 211 441 227 457 q 243 473 243 512 q 243 571 208 571 q 200 571 196 570 q 173 563 170 535 l 169 521 l 168 510 l 168 495 l 168 485 l 35 485 l 35 497 l 36 524 q 36 728 226 728 q 235 728 244 728 q 253 728 266 726 q 342 717 384 674 q 426 631 426 558 q 426 494 410 458 q 394 421 352 397 l 335 387 l 328 383 l 334 381 l 350 375 q 399 357 424 318 q 449 280 449 215 q 449 198 449 182 q 446 166 445 159 q 433 76 378 30 q 324 -15 233 -15 q 21 -15 21 186 l 21 221 z"},";":{"x_min":0,"x_max":269,"ha":269,"o":"m 29 495 q 33 462 60 442 q 86 421 125 421 q 145 421 169 429 q 179 432 185 435 q 188 437 198 444 q 214 456 222 472 q 230 489 230 509 q 230 541 206 564 q 178 590 133 590 q 86 590 57 566 q 28 542 28 506 q 29 499 29 495 z m 51 -102 l 60 -97 q 97 -72 106 -52 q 114 -33 114 -23 q 114 -8 98 0 l 76 6 q 66 8 51 22 q 29 43 29 72 q 29 108 61 132 q 93 156 142 156 q 164 156 187 146 q 240 125 240 65 q 240 35 224 6 q 209 -23 185 -45 q 137 -91 80 -100 z"},"J":{"x_min":0,"x_max":288,"ha":288,"o":"m -32 -52 q -13 -46 3 -34 q 45 -3 52 69 l 51 124 l 51 583 l 51 590 q 48 612 31 612 l 27 612 l 17 612 l 17 720 l 274 720 l 274 612 l 267 612 l 260 612 q 241 612 241 590 l 240 584 l 240 116 l 241 33 q 241 -50 193 -95 q 145 -140 24 -166 l -1 -171 z"},"V":{"x_min":0,"x_max":518,"ha":518,"o":"m -7 612 l -7 720 l 252 720 l 252 612 l 245 612 l 238 612 q 217 612 220 590 l 221 583 l 255 314 l 260 274 l 262 260 l 265 235 l 267 207 l 270 261 l 277 313 l 307 583 l 308 590 q 308 609 295 612 l 289 612 l 282 612 l 282 720 l 525 720 l 525 612 l 518 612 l 514 612 q 501 609 497 590 l 496 583 l 382 0 l 147 0 l 23 583 l 21 590 q 16 609 4 612 l 0 612 z"},"\"":{"x_min":0,"x_max":396,"ha":396,"o":"m 56 720 l 182 720 l 160 474 l 34 474 z m 236 720 l 362 720 l 340 474 l 214 474 z"},"7":{"x_min":0,"x_max":471,"ha":471,"o":"m 29 487 l 29 720 l 442 720 l 442 612 l 421 577 q 372 494 348 432 q 324 370 309 291 l 302 253 l 298 226 q 295 203 294 192 q 290 159 290 137 l 290 130 q 290 108 309 108 l 313 108 l 322 108 l 322 0 l 88 0 l 88 108 l 95 108 l 101 108 q 118 111 118 129 l 118 136 l 121 183 q 127 252 138 300 q 149 349 174 413 l 187 446 l 202 481 l 220 524 l 243 576 l 217 576 q 178 576 162 565 q 146 554 142 524 l 141 511 l 141 487 z"},"S":{"x_min":0,"x_max":492,"ha":492,"o":"m 447 704 l 447 494 l 326 494 l 324 501 l 319 520 q 298 583 266 583 q 263 583 255 581 q 230 573 230 549 q 230 542 233 532 q 236 521 250 505 l 263 493 l 270 487 l 291 467 l 311 450 l 319 444 l 359 411 q 417 364 441 329 q 465 294 474 248 q 479 218 479 196 q 479 101 412 44 q 344 -14 223 -14 q 170 -14 108 -2 l 71 7 l 48 13 l 27 19 l 27 272 l 155 272 l 155 251 q 155 205 163 180 q 171 154 188 140 q 204 127 222 127 q 250 127 262 152 q 268 164 268 181 q 268 195 263 214 q 258 234 240 256 q 223 278 183 309 l 174 316 l 138 346 l 113 366 q 62 413 42 446 q 22 479 22 525 q 22 624 88 678 q 158 735 295 735 q 313 735 332 732 q 350 728 404 714 z"},"}":{"x_min":0,"x_max":354,"ha":354,"o":"m 34 -120 l 34 -45 l 47 -45 q 79 -45 91 -34 q 103 -23 103 6 l 103 270 q 103 297 119 320 q 135 343 161 354 l 188 360 l 161 366 q 103 391 103 450 l 103 714 q 103 742 90 754 q 78 765 47 765 l 34 765 l 34 840 l 160 840 q 205 840 230 816 q 254 791 254 747 l 254 432 q 254 401 272 380 q 291 360 320 360 q 291 360 272 340 q 254 319 254 288 l 254 -27 q 254 -70 229 -95 q 204 -120 160 -120 z"},"Z":{"x_min":0,"x_max":482,"ha":482,"o":"m 7 0 l 7 101 l 232 576 l 206 576 l 196 575 q 179 572 170 561 q 161 550 157 526 l 157 513 l 157 488 l 23 488 l 23 720 l 465 720 l 465 627 l 242 150 l 280 150 l 291 151 q 313 154 323 166 q 333 178 337 210 l 338 228 l 338 278 l 468 278 l 468 0 z"},"x":{"x_min":0,"x_max":479,"ha":479,"o":"m 0 0 l 0 108 l 7 108 l 11 108 q 15 109 22 116 q 28 122 33 130 l 38 137 l 120 294 l 43 439 l 38 446 q 27 465 16 468 l 13 468 l 6 468 l 6 576 l 236 576 l 236 468 l 229 468 l 224 468 q 210 468 210 459 q 210 454 213 446 l 217 439 l 228 409 l 235 395 q 239 388 242 380 q 245 371 249 354 q 252 376 261 395 l 270 413 l 281 439 l 284 446 q 287 454 287 458 q 287 466 276 468 l 273 468 l 265 468 l 265 576 l 476 576 l 476 468 l 469 468 l 466 468 q 455 465 444 446 l 439 439 l 363 294 l 445 137 l 449 130 q 457 118 460 114 q 464 110 469 108 l 472 108 l 479 108 l 479 0 l 251 0 l 251 108 l 262 108 l 265 108 q 274 110 274 116 q 274 118 270 130 l 267 137 l 256 165 l 253 173 l 247 190 l 242 206 l 237 221 l 228 189 l 225 182 l 217 165 l 203 137 l 200 130 q 197 122 197 118 q 197 109 213 108 l 217 108 l 225 108 l 225 0 z"},")":{"x_min":0,"x_max":297,"ha":297,"o":"m 14 -123 q 54 -86 74 -42 q 93 3 106 91 q 110 119 112 149 q 114 179 114 232 l 114 492 q 114 617 100 681 q 85 745 40 813 q 31 828 28 832 q 23 839 14 849 l 55 825 q 149 759 202 662 q 254 564 266 423 q 266 402 266 382 q 266 361 267 340 q 267 327 267 321 q 267 311 266 303 q 266 295 265 289 q 249 128 184 24 q 118 -79 14 -123 z"},"&":{"x_min":0,"x_max":591,"ha":591,"o":"m 133 378 l 108 411 l 87 445 q 53 509 53 564 q 53 628 96 672 q 140 716 218 729 q 238 732 257 732 q 267 732 275 732 q 283 731 289 730 q 367 719 408 678 q 449 637 449 571 q 449 552 443 522 q 437 491 417 458 q 394 420 354 378 l 340 365 l 391 297 l 395 313 q 398 325 398 337 q 398 343 398 349 q 396 357 396 361 l 524 361 l 525 343 q 525 293 516 254 q 508 215 488 173 l 499 159 q 524 128 541 111 q 558 94 577 82 l 542 -17 l 511 -7 q 470 6 446 16 q 422 27 399 43 q 385 30 366 20 q 348 11 322 2 q 271 -14 224 -14 q 141 -14 86 32 q 32 79 23 159 q 21 169 21 180 q 21 191 21 197 q 21 252 44 292 q 66 332 116 367 z m 263 496 q 283 522 288 538 q 293 555 293 564 q 293 598 254 601 q 206 601 206 569 q 206 562 209 551 l 219 527 q 224 517 232 505 q 241 493 250 482 z m 211 262 q 194 232 194 212 q 194 182 206 164 q 219 147 248 139 q 251 138 267 137 q 283 136 286 136 l 315 142 l 293 169 q 254 219 217 272 z"},"_":{"x_min":0,"x_max":428,"ha":428,"o":"m 34 -40 l 34 0 l 394 0 l 394 -40 z"},"v":{"x_min":0,"x_max":466,"ha":466,"o":"m 0 468 l 0 576 l 230 576 l 230 468 l 223 468 l 220 468 q 207 465 207 446 l 208 439 l 232 289 l 236 263 l 239 242 l 243 195 l 245 218 l 246 242 l 250 292 l 278 439 l 279 446 q 279 466 264 468 l 260 468 l 253 468 l 253 576 l 466 576 l 466 468 l 459 468 l 455 468 q 444 465 439 446 l 438 439 l 335 0 l 132 0 l 28 439 l 26 446 q 22 464 11 468 l 7 468 z"},"O":{"x_min":0,"x_max":515,"ha":515,"o":"m 29 280 l 29 440 q 29 572 78 644 q 128 715 219 727 q 243 730 264 730 q 369 730 428 655 q 486 580 486 436 l 486 275 q 486 143 437 72 q 388 1 296 -12 q 272 -15 250 -15 q 145 -15 87 58 q 29 132 29 280 z m 222 184 q 222 137 257 137 q 262 137 265 138 q 293 144 293 184 l 293 531 q 293 577 259 577 q 253 577 244 575 q 235 573 228 562 q 222 552 222 531 z"},"(":{"x_min":0,"x_max":297,"ha":297,"o":"m 283 849 q 244 813 224 767 q 204 721 191 635 q 184 587 184 494 l 184 234 q 184 106 198 44 q 212 -18 257 -87 l 283 -123 q 274 -118 268 -115 q 265 -113 243 -98 q 144 -30 91 63 q 32 168 32 303 q 29 336 29 370 q 29 386 30 406 q 32 426 33 437 q 48 598 115 704 q 178 805 283 849 z"},"C":{"x_min":0,"x_max":488,"ha":488,"o":"m 450 699 l 450 456 l 319 456 l 318 468 l 317 479 l 315 494 q 308 540 298 558 q 288 576 272 579 q 250 583 238 570 q 225 556 225 525 l 225 454 l 224 395 l 224 361 l 225 267 l 226 193 q 226 136 268 136 q 276 136 285 139 q 304 145 312 163 q 321 181 321 223 l 321 239 l 321 257 l 320 273 l 466 273 l 466 263 l 466 217 q 466 -14 272 -14 q 261 -14 246 -12 q 230 -11 221 -10 q 125 2 79 75 q 29 155 29 318 q 29 340 29 362 q 29 385 30 408 q 30 578 86 654 q 141 731 258 731 q 298 731 348 722 l 351 721 l 423 705 l 429 704 z"},"W":{"x_min":0,"x_max":777,"ha":777,"o":"m 7 612 l 7 720 l 249 720 l 249 612 l 242 612 l 236 612 q 223 611 223 590 l 223 583 l 238 419 l 241 351 l 243 327 l 246 279 l 248 308 l 252 351 l 258 419 l 302 720 l 492 720 l 539 419 q 542 400 544 375 q 547 350 547 309 l 548 281 l 552 317 l 555 353 l 560 419 l 577 583 l 577 590 q 577 612 560 612 l 556 612 l 546 612 l 546 720 l 770 720 l 770 612 l 763 612 l 757 612 q 739 609 735 590 l 734 584 l 650 0 l 439 0 l 396 312 l 396 319 l 391 381 l 389 416 l 387 450 l 382 380 l 379 347 l 374 310 l 336 0 l 127 0 l 42 583 l 40 590 q 37 609 20 612 l 14 612 z"},"A":{"x_min":0,"x_max":528,"ha":528,"o":"m -7 0 l -7 108 l 0 108 l 6 108 q 15 110 20 114 q 26 119 28 130 l 30 136 l 144 689 q 161 689 179 692 q 197 695 204 696 q 248 702 293 712 q 338 723 383 738 l 505 137 l 507 130 q 511 111 524 108 l 528 108 l 535 108 l 535 0 l 277 0 l 277 108 l 284 108 l 290 108 q 309 108 306 130 l 306 137 l 297 191 l 213 191 l 202 137 l 202 130 q 202 111 217 108 l 222 108 l 233 108 l 233 0 z m 292 329 l 263 477 l 259 517 l 258 532 l 257 547 l 256 533 l 255 518 l 250 477 l 223 329 z"},"f":{"x_min":0,"x_max":278,"ha":278,"o":"m 11 468 l 11 576 l 51 576 l 51 625 q 51 680 86 712 q 120 743 188 743 q 215 743 250 737 l 266 734 l 278 731 l 278 627 l 273 628 l 268 628 l 263 629 l 257 628 l 251 627 q 228 623 223 604 l 222 598 l 222 576 l 278 576 l 278 468 l 222 468 l 222 137 l 223 130 q 223 111 238 108 l 257 108 l 272 108 l 272 0 l 14 0 l 14 108 l 25 108 l 31 108 q 46 108 49 130 l 50 137 l 50 468 z"},"Q":{"x_min":0,"x_max":515,"ha":515,"o":"m 29 280 l 29 440 q 29 572 78 644 q 128 715 219 727 q 243 730 264 730 q 369 730 428 655 q 486 580 486 436 l 486 275 l 485 233 q 485 162 464 118 q 444 74 401 41 l 431 -29 l 449 -58 q 460 -77 466 -84 q 472 -90 484 -96 l 456 -203 l 430 -195 q 390 -181 358 -166 q 293 -136 264 -108 q 235 -80 216 -32 l 208 -6 q 172 -6 140 13 q 108 32 77 74 q 55 104 42 170 q 29 236 29 280 z m 222 184 q 222 137 257 137 q 262 137 265 138 q 293 144 293 184 l 293 531 q 293 577 259 577 q 253 577 244 575 q 235 573 228 562 q 222 552 222 531 z"},"w":{"x_min":0,"x_max":728,"ha":728,"o":"m 7 468 l 7 576 l 236 576 l 236 468 l 228 468 l 225 468 q 212 465 212 446 l 213 439 l 229 317 l 232 273 l 233 256 l 236 224 l 239 249 l 242 274 l 247 322 l 282 576 l 454 576 l 483 324 l 488 274 l 490 258 l 494 226 l 496 274 l 497 280 l 503 321 l 520 439 l 520 446 q 520 465 510 468 l 507 468 l 500 468 l 500 576 l 721 576 l 721 468 l 714 468 l 710 468 q 699 464 696 446 l 694 439 l 601 0 l 406 0 l 370 259 l 369 264 l 366 304 l 364 330 l 362 355 l 361 329 l 358 303 l 357 293 l 352 255 l 320 0 l 124 0 l 34 439 l 33 446 q 29 465 18 468 l 14 468 z"},"-":{"x_min":0,"x_max":284,"ha":284,"o":"m 14 244 l 14 374 l 270 374 l 270 244 z"},"E":{"x_min":0,"x_max":497,"ha":497,"o":"m 14 0 l 14 108 l 21 108 l 28 108 q 50 111 50 130 l 51 134 l 51 580 l 51 590 q 51 612 30 612 l 24 612 l 15 612 l 15 720 l 450 720 l 450 487 l 329 487 l 321 516 l 317 530 q 308 557 296 566 q 284 576 258 576 l 237 576 l 237 451 l 404 451 l 404 310 l 239 310 l 239 144 l 274 144 l 289 145 q 323 145 337 162 q 351 178 351 224 l 356 275 l 483 275 l 483 0 z"},"s":{"x_min":0,"x_max":426,"ha":426,"o":"m 389 566 l 389 373 l 262 373 l 262 383 l 261 397 q 261 410 259 420 q 257 430 255 436 q 249 451 244 456 q 236 464 225 464 q 214 464 205 454 q 196 445 196 422 q 198 408 205 398 q 212 389 231 377 l 245 368 l 250 366 l 275 355 l 305 341 q 413 294 413 188 q 413 152 400 114 q 380 54 328 20 q 277 -14 198 -14 q 172 -14 146 -11 q 120 -8 89 0 l 59 8 l 40 14 l 25 19 l 25 228 l 153 228 l 154 219 l 155 211 l 157 196 q 164 158 176 142 q 187 126 205 126 q 238 126 238 168 q 238 210 194 231 l 173 241 l 159 247 l 140 255 l 121 264 q 22 309 22 420 q 22 428 22 436 q 24 448 24 453 q 32 518 80 555 q 133 595 222 595 q 269 595 329 583 q 346 580 356 577 q 367 574 389 566 z"},"l":{"x_min":0,"x_max":273,"ha":273,"o":"m 14 605 l 14 713 l 115 734 q 167 745 224 763 l 224 137 l 224 133 q 224 112 242 108 l 248 108 l 259 108 l 259 0 l 16 0 l 16 108 l 24 108 l 30 108 q 50 108 50 130 l 50 136 l 50 576 l 50 583 q 50 604 28 604 l 24 605 z"},"8":{"x_min":0,"x_max":470,"ha":470,"o":"m 111 387 l 101 393 q 44 435 34 504 q 31 525 31 544 q 31 619 75 668 q 119 717 196 726 q 220 729 241 729 q 332 729 386 678 q 439 626 439 542 q 439 524 436 504 q 425 434 369 393 l 360 387 l 370 380 q 412 350 433 310 q 454 269 454 212 q 454 189 449 154 q 438 83 394 40 q 350 -3 276 -13 q 252 -16 230 -16 q 144 -16 88 30 q 33 75 21 154 q 17 187 16 198 q 16 208 16 214 q 16 315 90 371 z m 206 473 l 206 468 q 206 446 228 441 q 243 437 254 445 q 265 453 265 468 l 265 474 l 265 570 l 265 575 l 263 582 q 255 600 235 600 q 215 600 208 582 l 206 575 l 206 571 z m 227 137 q 231 136 237 136 q 272 136 272 186 l 272 268 q 272 309 243 315 q 236 318 228 315 q 199 309 199 268 l 199 186 q 199 142 227 137 z"},"\\":{"x_min":0,"x_max":320,"ha":320,"o":"m 34 720 l 160 720 l 286 0 l 160 0 z"},"e":{"x_min":0,"x_max":452,"ha":452,"o":"m 423 290 l 259 249 l 253 247 l 234 241 q 215 236 211 228 q 207 219 207 209 l 207 159 q 207 127 234 127 q 267 127 267 166 l 268 227 l 423 227 q 428 227 426 216 q 423 205 423 204 q 423 89 376 38 q 330 -14 229 -14 q 123 -14 78 43 q 30 104 30 254 l 30 330 q 30 466 66 524 q 102 581 189 594 q 200 596 216 597 q 231 598 242 598 q 335 598 379 532 q 423 467 423 322 q 424 308 424 301 q 424 294 423 290 z m 256 333 l 256 417 q 256 438 252 446 q 248 453 235 455 l 224 454 q 213 451 210 444 q 206 436 206 418 l 206 322 z"},"b":{"x_min":0,"x_max":489,"ha":489,"o":"m 12 605 l 12 713 q 68 723 115 734 q 162 745 217 763 l 217 515 q 224 523 231 532 q 248 556 253 561 q 293 598 335 598 q 391 598 419 541 q 429 517 436 493 q 443 469 450 431 q 456 393 456 340 q 457 288 457 250 q 457 230 455 210 q 453 189 451 172 q 445 132 439 107 q 433 82 423 56 q 409 21 384 2 q 358 -16 328 -16 q 296 -16 269 5 q 252 18 233 43 l 223 56 l 185 0 l 48 0 l 48 583 q 48 597 42 601 q 38 604 26 604 z m 221 169 q 224 156 235 150 q 241 147 247 147 q 263 147 269 164 q 271 170 271 180 l 271 397 l 269 410 q 264 426 247 426 q 238 426 233 422 q 221 413 221 397 z"},"%":{"x_min":0,"x_max":818,"ha":818,"o":"m 23 543 q 31 631 66 670 q 100 710 171 716 q 178 716 186 716 q 195 717 198 717 q 216 717 225 716 q 296 710 330 670 q 365 631 372 543 q 373 535 374 528 q 374 520 374 509 q 374 501 374 493 q 372 481 372 476 q 365 388 330 348 q 296 309 225 303 q 207 301 198 301 q 191 301 183 302 q 175 303 171 303 q 100 309 67 347 q 31 388 24 475 z m 161 0 l 590 720 l 663 720 l 234 0 z m 445 201 q 445 310 487 360 q 529 410 616 410 q 637 410 648 409 q 721 409 758 358 q 796 306 796 201 q 796 92 755 42 q 714 -8 626 -8 q 613 -8 606 -8 q 598 -7 594 -7 q 525 -7 483 59 q 445 118 445 201 z m 176 450 l 177 444 q 183 430 198 430 q 213 430 218 444 l 220 450 l 220 568 l 218 574 q 213 588 198 588 q 184 588 177 574 l 176 568 z m 604 129 q 610 123 617 123 l 624 123 q 633 125 638 130 q 643 136 643 157 l 643 245 q 643 266 638 272 q 633 277 624 279 l 617 279 q 608 277 603 272 q 598 266 598 245 l 598 157 q 598 136 604 129 z"},"m":{"x_min":0,"x_max":717,"ha":717,"o":"m 14 0 l 14 108 l 27 108 l 33 108 q 50 111 50 130 l 50 137 l 50 418 l 50 425 q 50 446 28 446 l 24 446 l 14 446 l 14 554 q 112 571 203 602 l 209 582 q 217 555 220 520 l 224 526 l 228 532 l 238 544 q 244 552 250 558 q 257 565 267 573 q 303 602 345 602 q 376 602 400 585 q 424 568 435 537 l 441 518 l 447 527 l 454 537 l 463 550 q 482 573 499 584 q 516 595 537 600 q 545 601 552 602 q 560 604 569 604 q 619 604 644 562 q 670 520 670 431 l 670 137 l 670 130 q 670 112 684 108 l 689 108 l 703 108 l 703 0 l 480 0 l 480 108 l 488 108 l 490 108 q 496 110 496 130 l 496 137 l 496 404 l 496 413 l 495 424 q 495 441 478 446 q 465 448 455 440 q 445 432 445 408 l 445 137 l 446 130 q 446 111 455 108 l 459 108 l 465 108 l 465 0 l 257 0 l 257 108 l 264 108 l 267 109 q 273 114 273 130 l 274 137 l 274 401 l 273 414 l 273 421 q 273 439 252 443 q 245 444 236 439 q 226 434 224 422 l 223 417 l 223 405 l 223 137 l 223 130 q 223 111 232 108 l 235 108 l 243 108 l 243 0 z"},",":{"x_min":0,"x_max":239,"ha":239,"o":"m 36 -102 l 45 -97 q 83 -72 92 -50 q 98 -36 98 -26 q 98 -9 80 0 l 61 6 q 47 9 34 22 q 14 40 14 69 q 14 107 46 132 q 78 156 127 156 q 148 156 173 146 q 225 126 225 64 q 225 36 210 6 q 190 -35 149 -65 q 123 -84 94 -93 q 65 -102 36 -102 z"},"n":{"x_min":0,"x_max":495,"ha":495,"o":"m 14 0 l 14 108 l 26 108 l 32 108 q 50 111 50 130 l 50 137 l 50 418 l 50 425 q 50 446 28 446 l 24 446 l 14 446 l 14 554 q 113 569 202 603 q 207 585 212 560 q 217 536 217 519 l 229 535 q 255 569 284 586 q 314 603 344 603 q 369 603 395 588 q 421 574 434 548 q 447 521 447 471 l 448 452 l 448 137 l 448 130 q 448 112 462 108 l 466 108 l 481 108 l 481 0 l 255 0 l 255 108 l 265 108 l 267 108 q 273 111 274 123 l 275 130 l 275 137 l 275 389 l 275 396 l 275 407 l 273 415 q 270 432 250 432 q 243 432 236 428 q 221 420 221 403 l 221 396 l 221 383 l 221 137 l 221 130 q 221 111 232 108 l 235 108 l 243 108 l 243 0 z"},"h":{"x_min":0,"x_max":494,"ha":494,"o":"m 14 0 l 14 108 l 27 108 l 33 108 q 50 111 50 130 l 50 137 l 50 576 l 50 583 q 50 604 28 604 l 24 605 l 14 605 l 14 713 l 65 722 q 140 738 219 763 l 219 525 l 234 543 q 262 574 290 589 q 318 604 344 604 q 372 604 397 586 q 422 569 434 541 q 445 513 445 462 l 445 137 l 445 130 q 445 111 460 108 l 466 108 l 480 108 l 480 0 l 254 0 l 254 108 l 261 108 l 264 108 q 273 112 273 130 l 273 137 l 273 401 l 273 412 l 272 420 q 271 435 260 443 q 254 446 248 446 q 230 446 224 426 l 223 420 l 223 415 l 223 402 l 223 137 l 222 130 q 222 111 232 108 l 236 108 l 243 108 l 243 0 z"},"z":{"x_min":0,"x_max":435,"ha":435,"o":"m 11 0 l 15 109 l 210 453 l 191 454 q 141 454 141 391 l 141 364 l 14 364 l 14 576 l 415 576 l 411 465 l 218 131 l 250 131 q 297 131 297 181 l 297 227 l 421 227 l 421 0 z"},"B":{"x_min":0,"x_max":543,"ha":543,"o":"m 12 -6 l 12 108 l 27 108 q 48 108 48 130 l 48 590 q 48 612 27 612 l 12 612 l 12 727 q 31 727 78 725 q 125 723 129 723 l 202 723 l 326 730 q 502 730 502 536 q 502 484 476 449 q 451 414 399 389 l 383 383 l 394 379 q 458 358 488 316 q 519 273 519 200 q 519 178 516 152 q 506 75 462 33 q 418 -9 341 -9 l 302 -9 l 187 -1 l 121 -1 q 93 -1 66 -2 q 39 -3 12 -6 z m 247 442 q 275 442 288 460 q 300 477 300 519 l 299 532 q 294 584 246 584 l 239 583 l 239 443 z m 247 138 q 285 138 301 158 q 317 178 317 229 q 317 276 301 296 q 285 316 248 316 l 239 315 l 239 138 z"},"K":{"x_min":0,"x_max":551,"ha":551,"o":"m 14 0 l 14 108 l 21 108 l 28 108 q 50 108 50 130 l 51 137 l 51 583 l 50 590 q 47 612 29 612 l 22 612 l 14 612 l 14 720 l 266 720 l 266 612 l 257 612 l 253 612 q 240 609 240 590 l 239 583 l 239 442 l 296 583 l 299 590 q 302 598 302 602 q 302 610 292 612 l 286 612 l 279 612 l 279 720 l 537 720 l 537 612 l 530 612 l 526 612 q 506 609 495 590 l 492 585 l 401 401 l 420 352 l 445 292 q 451 276 460 256 q 470 235 490 199 l 499 182 l 526 135 q 539 112 546 104 q 552 97 564 90 l 539 -16 l 521 -12 q 413 17 362 66 q 310 114 267 229 l 257 256 l 239 310 l 239 137 l 239 130 q 239 108 259 108 l 264 108 l 273 108 l 273 0 z"},"R":{"x_min":0,"x_max":542,"ha":542,"o":"m 14 0 l 14 108 l 28 108 q 51 108 51 130 l 51 583 l 50 590 q 47 612 29 612 l 14 612 l 14 727 q 71 721 128 721 l 191 722 l 224 725 l 258 727 q 288 730 315 730 q 414 730 460 689 q 506 648 506 556 q 506 541 506 526 q 503 504 502 493 q 490 402 424 364 l 414 359 l 431 322 l 453 275 q 461 256 466 246 q 470 237 485 209 l 498 183 q 522 139 536 119 q 549 99 564 87 l 537 -18 l 516 -12 q 401 24 354 71 q 307 118 263 240 l 252 271 l 239 312 l 239 137 l 240 130 q 240 108 261 108 l 267 108 l 274 108 l 274 0 z m 245 440 q 273 440 286 456 q 300 471 300 508 q 300 582 254 582 l 248 583 l 241 583 l 237 582 l 237 441 z"},"T":{"x_min":0,"x_max":518,"ha":518,"o":"m 0 460 l 0 720 l 518 720 l 518 460 l 411 460 l 411 487 l 410 500 l 410 519 l 408 538 q 404 570 393 586 q 382 601 364 603 l 352 603 l 352 146 l 352 140 l 353 131 q 353 106 379 106 l 388 106 l 388 0 l 128 0 l 128 107 l 137 107 q 164 107 164 129 l 165 137 l 165 144 l 165 602 l 155 602 q 137 600 125 582 q 110 559 110 522 l 109 500 l 109 484 l 109 460 z"},"P":{"x_min":0,"x_max":511,"ha":511,"o":"m 14 612 l 14 726 l 69 721 q 79 721 84 721 q 93 721 98 721 q 106 721 110 721 q 130 721 150 721 q 169 721 188 722 l 197 722 l 249 728 l 264 729 q 401 729 456 683 q 511 637 511 515 q 511 402 470 346 q 428 291 347 291 q 327 291 297 296 l 272 300 l 263 302 l 249 416 l 258 416 q 310 416 316 482 q 316 545 302 566 q 289 588 247 588 l 239 588 l 239 137 l 240 130 q 243 111 259 108 l 263 108 l 277 108 l 277 0 l 14 0 l 14 108 l 21 108 l 28 108 q 47 108 50 130 l 50 135 l 51 583 l 50 586 l 50 590 q 50 612 29 612 l 24 612 z"},"t":{"x_min":0,"x_max":278,"ha":278,"o":"m 14 469 l 14 556 l 34 564 q 69 578 98 602 q 127 626 146 654 q 166 683 177 720 l 223 720 l 223 576 l 278 576 l 278 468 l 221 468 l 221 166 q 221 153 221 146 q 221 138 224 131 q 231 114 257 114 q 266 114 278 122 l 278 19 l 254 6 q 207 -17 164 -17 q 116 -17 86 12 q 55 40 50 87 l 48 122 l 48 469 z"},"M":{"x_min":0,"x_max":714,"ha":714,"o":"m 14 0 l 14 107 l 22 107 l 30 107 l 38 109 q 51 113 54 127 l 54 135 l 54 580 l 53 586 q 50 605 31 609 l 24 611 l 17 611 l 17 720 l 242 720 l 334 390 l 345 347 l 347 339 q 351 322 354 300 q 357 279 357 259 q 357 282 358 296 q 360 309 367 339 l 368 345 l 380 390 l 472 720 l 696 720 l 696 611 l 690 611 l 683 609 q 663 604 661 586 l 660 582 l 660 135 l 660 127 q 660 110 684 107 l 692 107 l 700 107 l 700 0 l 480 0 l 480 107 l 485 108 l 494 108 q 518 108 518 127 l 518 134 l 518 308 l 519 312 l 525 361 l 528 386 l 530 405 l 519 359 l 504 313 l 416 0 l 297 0 l 210 313 l 195 359 l 184 405 l 187 383 l 189 361 l 195 311 l 196 308 l 196 134 l 196 128 q 196 108 220 108 l 229 108 l 234 107 l 234 0 z"},"g":{"x_min":0,"x_max":453,"ha":453,"o":"m 20 0 l 20 94 l 92 188 l 84 195 q 56 220 42 273 q 29 326 29 406 q 29 501 80 550 q 130 600 221 600 q 229 600 238 600 q 250 598 256 598 l 290 592 l 326 583 q 331 581 340 580 q 349 578 362 578 l 392 576 l 436 576 l 436 453 l 422 454 q 420 453 419 453 q 415 451 413 448 l 411 445 l 412 422 l 415 388 l 415 356 q 415 301 400 262 q 384 222 354 195 q 329 174 298 163 q 268 152 229 152 l 209 152 l 197 133 l 197 128 l 281 128 q 437 128 437 0 q 437 -18 434 -41 q 426 -101 384 -137 q 342 -173 267 -182 q 236 -186 203 -186 q 110 -186 66 -148 q 21 -111 21 -41 l 22 -20 l 159 -20 l 158 -26 q 158 -44 166 -51 q 174 -58 196 -58 l 206 -58 l 214 -58 l 223 -57 q 252 -54 252 -34 q 255 -8 224 -2 l 216 0 z m 199 310 q 199 295 215 290 q 230 285 239 299 q 240 301 241 306 q 241 307 242 308 l 242 439 q 240 450 232 454 q 224 459 220 459 q 215 459 207 454 q 199 449 199 440 z"},"j":{"x_min":0,"x_max":262,"ha":262,"o":"m 14 446 l 21 446 l 28 446 q 50 446 50 425 l 50 420 l 50 -195 l 176 -180 l 205 -93 q 213 -69 218 -48 q 222 -28 222 -13 l 222 415 q 222 489 218 522 q 214 556 200 604 q 108 567 14 554 z m 21 679 q 21 713 46 734 q 75 759 129 759 q 176 759 205 740 q 219 731 226 716 q 233 701 233 684 q 233 664 223 647 q 213 630 188 618 q 163 607 130 607 q 122 607 112 608 q 102 608 79 613 q 56 618 38 636 q 21 653 21 679 z"},"i":{"x_min":0,"x_max":273,"ha":273,"o":"m 14 446 l 21 446 l 28 446 q 50 446 50 425 l 50 420 l 50 137 l 49 130 q 49 110 31 108 l 27 108 l 15 108 l 15 0 l 259 0 l 259 108 l 246 108 l 240 108 q 224 112 224 130 l 224 137 l 224 417 q 224 477 219 518 q 214 558 201 605 q 112 568 14 554 z m 22 682 q 22 717 49 738 q 76 760 129 760 q 156 760 177 754 q 198 747 211 735 q 221 727 227 713 q 233 699 233 686 q 233 653 209 633 q 194 622 179 616 q 149 606 120 606 q 76 606 49 628 q 22 651 22 682 z"},"y":{"x_min":0,"x_max":489,"ha":489,"o":"m 0 468 l 0 576 l 232 576 l 232 468 l 224 468 l 220 468 q 207 465 210 446 l 210 439 l 247 242 l 278 439 l 278 446 q 281 465 268 468 l 264 468 l 257 468 l 257 576 l 489 576 l 489 468 l 482 468 l 479 468 q 469 465 464 446 l 463 439 l 357 10 q 331 -96 297 -134 q 263 -171 177 -190 l 154 -194 l 129 -69 l 144 -66 q 169 -56 178 -25 l 181 -14 l 183 0 l 135 0 l 27 439 l 25 446 q 21 465 11 468 l 7 468 z"},".":{"x_min":0,"x_max":246,"ha":246,"o":"m 22 73 q 22 107 50 130 q 79 154 126 154 q 173 154 198 130 q 224 107 224 72 q 224 35 199 13 q 186 1 166 -6 q 147 -14 125 -14 q 77 -14 50 10 q 22 35 22 73 z"},"p":{"x_min":0,"x_max":489,"ha":489,"o":"m 14 446 l 14 554 q 90 566 159 588 l 203 602 q 210 584 214 569 q 222 541 222 512 l 239 541 l 255 559 q 290 595 335 595 q 385 595 412 554 q 425 535 436 498 q 448 461 454 416 q 460 371 460 301 q 460 164 445 110 q 435 75 428 58 q 422 42 412 26 q 383 -18 332 -18 q 307 -18 284 -7 q 262 4 242 29 l 224 57 l 224 -8 l 224 -30 l 223 -35 q 223 -41 221 -50 q 219 -59 216 -69 l 179 -177 l 50 -194 l 50 418 l 50 425 q 50 439 44 443 q 40 446 28 446 z m 245 131 q 265 128 273 148 q 276 157 276 176 l 276 402 l 275 411 q 272 436 260 443 q 254 446 248 446 q 231 446 225 427 l 224 420 l 224 412 l 223 404 l 223 170 q 223 134 245 131 z"},"X":{"x_min":0,"x_max":533,"ha":533,"o":"m -7 0 l -7 108 l 0 108 l 5 108 q 18 111 29 130 l 33 137 l 159 375 l 41 583 l 37 590 q 26 609 8 612 l 2 612 l -5 612 l -5 720 l 253 720 l 253 612 l 246 612 l 242 612 q 236 610 236 602 q 236 598 239 590 l 240 587 l 242 583 l 249 554 q 263 502 267 460 q 267 487 274 512 q 280 538 284 554 l 292 583 l 293 587 l 294 590 q 297 598 297 602 q 297 610 291 612 l 287 612 l 280 612 l 280 720 l 539 720 l 539 612 l 531 612 l 525 612 q 516 610 509 605 q 502 600 497 590 l 493 584 l 374 375 l 500 137 l 504 130 q 515 111 529 108 l 533 108 l 540 108 l 540 0 l 280 0 l 280 114 l 288 114 l 296 115 q 313 115 313 127 q 313 128 311 136 l 308 143 l 288 190 l 276 226 l 267 275 l 263 252 q 260 236 256 222 q 252 207 245 190 l 225 143 l 222 136 q 215 121 227 117 q 229 116 233 115 q 234 115 237 115 l 246 114 l 253 114 l 253 0 z"},"*":{"x_min":0,"x_max":387,"ha":387,"o":"m 22 599 q 36 653 76 687 l 168 606 l 138 723 q 165 732 194 732 q 221 732 248 723 l 219 604 l 310 689 q 352 652 364 599 l 244 557 l 365 519 q 361 500 351 481 q 341 462 329 447 l 308 426 l 219 513 l 245 390 q 235 386 220 384 q 206 382 193 382 q 174 382 165 383 q 156 384 140 390 l 165 512 l 76 426 q 34 460 23 515 l 144 558 z"},"Y":{"x_min":0,"x_max":504,"ha":504,"o":"m -7 612 l -7 720 l 250 720 l 250 612 l 243 612 l 237 612 q 226 610 226 600 q 226 598 228 590 l 231 583 l 246 534 l 255 482 l 261 442 l 263 456 l 266 483 l 273 530 l 274 534 l 287 583 l 289 590 q 291 598 291 600 q 291 610 281 612 l 276 612 l 269 612 l 269 720 l 511 720 l 511 612 l 503 612 l 498 612 q 483 609 475 590 l 472 583 l 355 282 l 355 137 l 355 130 q 355 111 374 108 l 378 108 l 388 108 l 388 0 l 131 0 l 131 108 l 138 108 l 145 108 q 162 108 166 130 l 167 137 l 167 280 l 34 583 l 31 590 q 22 609 6 612 l 0 612 z"},"c":{"x_min":0,"x_max":428,"ha":428,"o":"m 390 569 l 390 361 l 255 361 l 254 377 l 254 385 l 253 415 l 252 423 q 247 452 222 444 q 211 439 208 427 l 207 420 l 207 402 l 207 189 l 207 164 q 206 159 211 146 q 216 133 231 133 q 237 133 244 138 q 256 147 256 167 l 257 189 l 257 199 l 257 218 l 257 229 l 399 229 l 398 183 q 398 82 362 32 q 326 -17 248 -17 q 218 -17 170 -7 q 97 9 66 60 q 31 117 31 241 q 31 250 31 254 q 31 262 31 266 q 31 283 30 300 q 30 317 30 335 q 30 342 30 345 q 30 475 76 536 q 123 598 220 598 q 256 598 300 589 l 308 587 l 355 575 l 364 574 z"},"!":{"x_min":0,"x_max":246,"ha":246,"o":"m 22 73 q 22 34 49 10 q 76 -14 125 -14 q 170 -14 199 13 q 224 35 224 72 q 224 107 198 130 q 173 154 126 154 q 78 154 50 131 q 22 108 22 73 z m 43 186 l 43 720 l 203 720 l 203 186 z"},"/":{"x_min":0,"x_max":326,"ha":326,"o":"m 14 -25 l 262 746 l 312 746 l 66 -25 z"},"[":{"x_min":0,"x_max":279,"ha":279,"o":"m 43 -123 l 43 843 q 97 834 152 834 q 178 834 208 837 q 237 840 265 845 l 265 751 l 253 751 q 243 751 236 748 q 229 744 219 734 q 209 725 206 714 q 203 703 203 672 l 203 48 q 203 22 204 10 q 206 -3 220 -17 q 235 -31 253 -31 l 265 -31 l 265 -125 q 208 -115 145 -115 q 105 -115 88 -116 q 72 -118 43 -123 z"},"6":{"x_min":0,"x_max":469,"ha":469,"o":"m 417 539 l 417 489 l 286 489 l 286 549 l 284 559 q 274 582 249 582 q 208 582 208 525 l 208 457 l 225 465 q 236 469 253 471 q 270 473 288 473 q 359 473 400 422 q 440 371 440 270 q 440 147 402 78 q 363 10 285 -8 q 258 -14 232 -14 q 159 -14 108 37 q 56 88 37 182 q 30 221 30 360 l 30 408 q 30 436 32 458 q 33 479 37 504 q 56 628 102 678 q 148 728 239 728 q 325 728 373 672 q 417 621 417 539 z m 205 169 q 205 140 233 140 q 264 140 264 165 l 264 295 q 264 318 243 325 q 235 327 231 327 q 205 327 205 297 z"},"r":{"x_min":0,"x_max":348,"ha":348,"o":"m 14 0 l 14 108 l 24 109 l 30 110 q 50 110 50 131 l 50 137 l 50 418 l 50 425 q 50 446 28 446 l 24 446 l 14 446 l 14 554 q 63 561 114 574 q 166 588 208 605 q 216 569 219 523 q 222 477 222 433 l 223 440 l 228 467 l 232 489 q 244 548 265 570 q 286 592 337 599 l 355 600 l 355 370 l 282 370 l 264 370 l 251 370 q 230 370 223 345 l 223 313 l 223 137 l 224 130 q 224 112 238 108 l 243 108 l 258 108 l 258 0 z"},"2":{"x_min":0,"x_max":470,"ha":470,"o":"m 32 0 l 32 114 q 64 151 94 194 q 123 237 155 294 q 187 350 204 386 q 221 421 229 446 q 237 471 240 488 q 244 504 244 517 q 244 569 206 569 q 173 569 169 523 l 168 502 l 168 496 l 167 483 l 35 483 l 35 495 l 35 518 q 35 726 231 726 q 328 726 384 677 q 441 628 441 542 q 441 512 437 488 q 433 465 420 432 q 411 408 398 380 q 384 352 361 311 l 342 279 l 336 270 l 301 216 l 293 203 l 267 160 l 262 152 l 246 129 l 431 129 l 431 0 z"},"{":{"x_min":0,"x_max":354,"ha":354,"o":"m 34 360 q 63 360 82 380 q 100 401 100 432 l 100 747 q 100 790 125 815 q 150 840 194 840 l 320 840 l 320 765 l 307 765 q 275 765 263 754 q 251 743 251 714 l 251 450 q 251 423 235 400 q 219 377 193 366 l 166 360 l 193 354 q 251 329 251 270 l 251 6 q 251 -22 264 -34 q 276 -45 307 -45 l 320 -45 l 320 -120 l 194 -120 q 149 -120 124 -96 q 100 -71 100 -27 l 100 288 q 100 319 82 340 q 63 360 34 360 z"},"9":{"x_min":0,"x_max":469,"ha":469,"o":"m 52 174 l 52 224 l 183 224 l 183 163 l 186 153 q 194 131 220 131 q 261 131 261 188 l 261 256 l 244 248 q 233 244 216 242 q 199 240 181 240 q 110 240 70 291 q 29 342 29 443 q 29 565 68 634 q 107 702 184 721 q 211 727 236 727 q 310 727 362 676 q 413 625 432 531 q 439 492 439 305 q 439 277 438 256 q 436 234 432 209 q 413 85 367 35 q 321 -15 230 -15 q 144 -15 96 41 q 52 93 52 174 z m 204 417 q 204 393 225 388 q 233 386 236 386 q 261 386 261 415 l 261 544 q 261 573 234 573 q 204 573 204 547 z"}," ":{"x_min":0,"x_max":290,"ha":290,"o":""},"I":{"x_min":0,"x_max":288,"ha":288,"o":"m 14 0 l 14 108 l 21 108 l 29 108 q 50 108 50 130 l 51 135 l 51 583 l 50 590 q 50 612 30 612 l 25 612 l 16 612 l 16 720 l 273 720 l 273 612 l 265 612 l 259 612 q 249 612 245 607 q 240 602 239 590 l 238 583 l 238 137 l 239 130 q 239 108 259 108 l 264 108 l 274 108 l 274 0 z"},"H":{"x_min":0,"x_max":547,"ha":547,"o":"m 14 0 l 14 108 l 21 108 l 28 108 q 49 108 49 130 l 49 135 l 50 583 l 49 590 q 49 612 29 612 l 25 612 l 15 612 l 15 720 l 266 720 l 266 612 l 259 612 l 254 612 q 238 609 238 590 l 238 583 l 238 451 l 309 451 l 309 583 l 309 590 q 309 609 293 612 l 288 612 l 281 612 l 281 720 l 533 720 l 533 612 l 525 612 l 518 612 q 498 612 498 590 l 498 585 l 498 137 l 498 130 q 498 108 519 108 l 524 108 l 533 108 l 533 0 l 281 0 l 281 108 l 288 108 l 293 108 q 305 110 309 130 l 310 137 l 310 309 l 238 309 l 238 137 l 238 130 q 238 112 255 108 l 260 108 l 267 108 l 267 0 z"},"4":{"x_min":0,"x_max":471,"ha":471,"o":"m 9 214 l 9 343 l 190 720 l 402 720 l 402 349 l 433 349 l 433 215 l 403 215 l 403 137 l 403 130 q 403 112 419 108 l 424 108 l 432 108 l 432 0 l 193 0 l 193 108 l 207 108 l 212 108 q 228 111 228 130 l 228 137 l 228 214 z m 230 346 l 230 501 l 159 346 z"},"~":{"x_min":0,"x_max":506,"ha":506,"o":"m 34 271 l 35 296 q 42 374 74 414 q 107 453 160 453 q 175 453 188 450 q 202 447 223 440 l 306 408 l 329 400 q 338 397 345 397 q 364 397 374 426 q 378 438 378 445 l 379 454 l 472 454 l 471 429 q 457 273 347 273 q 320 273 283 286 l 200 317 l 177 325 q 169 329 160 329 q 143 329 132 299 q 128 289 128 281 l 127 271 z"},"D":{"x_min":0,"x_max":545,"ha":545,"o":"m 14 612 l 14 727 q 36 723 64 722 q 93 721 127 721 q 140 721 150 721 q 160 721 166 721 l 197 723 l 220 726 q 253 729 283 729 q 419 729 467 638 q 515 548 515 295 q 515 133 458 62 q 402 -10 283 -10 q 269 -10 251 -8 q 233 -7 218 -5 q 202 -3 172 -2 q 142 -1 138 -1 q 120 -1 102 -1 q 83 -1 64 -2 l 14 -7 l 14 108 l 29 108 q 51 108 51 130 l 51 583 l 50 590 q 47 612 28 612 z m 244 134 l 251 134 l 261 133 q 287 133 300 156 q 312 178 312 239 l 313 271 l 314 325 l 314 365 l 314 380 l 313 464 q 313 540 301 563 q 289 586 252 586 l 246 585 l 240 584 l 240 134 z"},"^":{"x_min":0,"x_max":537,"ha":537,"o":"m 34 155 l 268 576 l 503 155 l 360 155 l 268 335 l 177 155 z"},"0":{"x_min":0,"x_max":470,"ha":470,"o":"m 29 265 l 29 449 q 29 584 85 656 q 141 727 235 727 q 329 727 385 656 q 441 584 441 449 l 441 265 q 441 130 386 58 q 330 -13 235 -13 q 147 -13 88 70 q 29 154 29 265 z m 206 168 q 206 147 225 141 q 232 138 240 140 q 261 145 261 168 l 261 546 q 261 564 248 571 q 243 575 234 575 q 214 575 208 554 l 206 546 z"},"F":{"x_min":0,"x_max":449,"ha":449,"o":"m 14 612 l 14 720 l 449 720 l 449 490 l 328 490 l 320 518 l 315 534 l 312 543 q 301 576 262 576 l 240 576 l 240 454 l 402 454 l 402 312 l 239 312 l 239 137 l 240 130 q 240 108 260 108 l 265 108 l 275 108 l 275 0 l 15 0 l 15 108 l 20 108 l 28 108 q 45 108 49 130 l 50 137 l 50 583 l 50 587 q 50 612 28 612 l 24 612 z"},"`":{"x_min":0,"x_max":253,"ha":253,"o":"m -34 747 l 106 747 l 192 621 l 93 621 z"},"k":{"x_min":0,"x_max":501,"ha":501,"o":"m 14 0 l 14 108 l 26 108 l 33 108 q 52 108 52 130 l 53 135 l 53 576 l 53 583 q 53 604 32 604 l 28 605 l 14 605 l 14 713 q 68 721 122 734 q 150 740 168 746 q 187 751 224 763 l 224 335 l 270 439 l 273 446 q 275 449 275 452 q 275 456 275 457 q 275 467 265 468 l 259 468 l 252 468 l 252 576 l 476 576 l 476 468 l 469 468 l 465 468 q 459 466 454 462 q 448 457 442 446 l 438 439 l 381 324 l 470 137 l 474 130 l 478 122 q 486 111 491 108 l 493 108 l 501 108 l 501 0 l 268 0 l 268 108 l 275 108 l 279 108 q 285 110 285 117 q 285 122 282 130 l 279 137 l 227 276 l 227 137 l 228 130 q 228 111 238 108 l 241 108 l 248 108 l 248 0 z"},"u":{"x_min":0,"x_max":490,"ha":490,"o":"m 14 446 l 14 554 q 109 569 201 602 q 215 557 219 524 q 223 492 223 420 l 223 193 l 223 184 l 223 179 l 224 173 q 230 153 248 153 q 253 153 258 156 q 271 164 271 179 l 271 183 l 271 576 l 476 576 l 476 468 l 456 467 l 452 464 q 446 458 445 450 l 444 445 l 444 190 l 445 170 l 445 162 q 445 135 472 135 l 476 135 l 476 36 l 460 20 q 442 2 420 -7 q 397 -16 376 -16 q 345 -16 319 2 q 293 21 281 53 l 277 67 l 268 53 q 249 26 217 4 q 185 -17 150 -17 q 119 -17 95 0 q 71 17 61 48 q 55 68 52 88 q 50 108 50 153 l 50 191 l 50 418 l 50 425 q 50 446 28 446 l 24 446 z"},"]":{"x_min":0,"x_max":279,"ha":279,"o":"m 14 -125 l 14 -31 l 26 -31 q 44 -31 59 -16 q 70 -5 73 6 q 76 17 76 48 l 76 672 q 76 698 74 710 q 73 723 59 736 q 53 742 49 744 q 38 751 26 751 l 14 751 l 14 845 q 74 834 130 834 q 183 834 236 843 l 236 -123 q 215 -119 186 -117 q 156 -115 130 -115 q 68 -115 14 -125 z"},"U":{"x_min":0,"x_max":550,"ha":550,"o":"m 14 612 l 14 720 l 266 720 l 266 612 l 259 612 l 253 612 q 237 609 237 590 l 237 583 l 237 191 q 237 165 244 154 q 251 143 268 140 l 282 140 q 313 146 313 191 l 313 583 l 313 590 q 313 609 297 612 l 291 612 l 284 612 l 284 720 l 536 720 l 536 612 l 529 612 l 522 612 q 502 612 502 590 l 502 585 l 502 186 q 502 91 460 46 q 417 0 312 -13 q 303 -15 292 -15 q 281 -15 275 -15 q 266 -15 261 -15 q 255 -15 250 -15 q 242 -13 238 -13 q 132 0 90 45 q 48 90 48 186 l 48 583 l 48 590 q 48 612 28 612 l 24 612 z"},"o":{"x_min":0,"x_max":465,"ha":465,"o":"m 29 291 q 29 404 68 488 q 113 585 193 595 q 219 598 241 598 q 345 598 390 528 q 436 457 436 291 q 436 132 398 64 q 360 -3 271 -13 q 261 -14 254 -14 q 246 -15 242 -15 q 137 -15 79 84 q 29 169 29 291 z m 231 132 q 253 132 256 160 l 257 169 l 257 412 q 257 454 225 449 q 205 444 205 412 l 205 169 q 205 148 211 140 q 217 132 231 132 z"},"N":{"x_min":0,"x_max":556,"ha":556,"o":"m 14 0 l 14 108 l 21 108 l 28 108 q 47 108 50 130 l 50 135 l 50 583 l 50 590 q 50 612 29 612 l 25 612 l 15 612 l 15 720 l 252 720 l 344 391 l 359 340 l 370 289 l 368 312 l 365 342 l 361 389 l 361 583 l 360 590 q 359 604 355 608 q 351 612 338 612 l 331 612 l 324 612 l 324 720 l 542 720 l 542 612 l 535 612 l 527 612 q 505 612 505 590 l 505 583 l 505 0 l 297 0 l 208 317 l 193 359 l 178 407 l 182 387 l 187 360 l 193 311 l 193 137 l 194 130 q 197 108 217 108 l 224 108 l 231 108 l 231 0 z"},"G":{"x_min":0,"x_max":526,"ha":526,"o":"m 463 696 l 463 486 l 341 486 l 339 492 l 334 511 q 326 539 316 555 q 305 571 290 578 q 285 580 280 581 q 275 582 270 582 q 235 582 228 547 q 225 530 225 497 q 225 479 225 468 l 224 359 l 224 269 l 224 257 q 224 182 232 160 q 239 139 266 137 l 273 137 l 278 137 l 283 137 l 288 138 l 292 139 l 295 141 l 295 282 l 295 289 q 295 310 276 310 l 272 310 l 262 310 l 262 418 l 512 418 l 512 310 l 505 310 l 499 310 q 482 308 482 289 l 483 282 l 483 18 q 464 18 454 16 q 432 10 405 4 q 378 -3 356 -8 q 334 -12 318 -12 q 159 -12 97 63 q 29 145 29 360 q 29 554 86 644 q 144 733 269 733 q 323 733 396 716 l 434 706 l 448 701 z"},"q":{"x_min":0,"x_max":473,"ha":473,"o":"m 264 520 l 299 576 l 435 576 l 435 -10 q 435 -48 432 -58 q 430 -68 419 -101 l 392 -178 l 263 -193 l 263 68 l 256 52 q 229 2 185 -11 q 170 -16 151 -16 q 110 -16 82 20 q 53 55 40 122 q 27 190 27 284 q 27 382 36 438 q 46 494 68 538 q 97 598 156 598 q 173 598 191 591 q 209 584 226 569 l 246 549 q 251 542 256 536 q 260 529 264 520 z m 227 149 q 233 146 238 146 q 247 146 255 155 q 263 164 263 176 l 264 403 q 264 422 251 430 q 244 434 237 434 q 221 434 216 419 l 213 404 l 213 190 q 213 156 227 149 z"},"d":{"x_min":0,"x_max":488,"ha":488,"o":"m 263 518 l 263 583 q 263 604 241 604 l 227 605 l 227 713 q 260 720 302 729 q 344 738 379 748 q 402 754 411 756 q 420 759 434 763 l 434 166 q 434 143 454 136 q 465 133 472 137 l 472 37 q 463 26 457 22 q 416 -16 370 -16 q 308 -16 271 48 l 265 60 l 259 51 q 254 43 248 36 q 242 29 234 21 q 196 -16 153 -16 q 97 -16 66 44 q 44 87 36 150 q 28 214 28 340 q 28 377 37 441 q 46 505 62 535 q 94 596 154 596 q 192 596 222 567 z m 211 184 q 211 176 212 172 q 213 167 216 158 q 220 148 238 148 q 246 148 251 152 q 257 156 259 162 q 262 169 262 182 l 262 400 q 262 426 236 426 q 211 426 211 385 z"},"1":{"x_min":0,"x_max":469,"ha":469,"o":"m 49 461 l 49 553 l 83 557 q 143 569 185 605 q 227 641 242 693 l 248 720 l 331 720 l 331 137 l 331 130 q 334 111 348 108 l 353 108 l 360 108 l 360 0 l 112 0 l 112 108 l 134 108 l 139 109 q 157 114 157 130 l 158 137 l 158 461 z"},"5":{"x_min":0,"x_max":470,"ha":470,"o":"m 26 238 l 164 238 l 164 216 q 164 183 169 169 q 174 155 188 148 q 202 140 212 140 q 249 140 260 188 l 262 205 l 263 223 l 264 241 q 264 327 213 338 q 208 339 200 339 q 178 339 164 326 q 149 314 149 297 l 44 297 l 87 720 l 413 720 l 413 576 l 224 576 l 213 462 q 224 466 229 467 q 244 471 258 471 q 265 472 277 472 q 357 472 401 417 q 445 362 445 254 q 445 224 443 206 q 441 188 440 178 q 428 87 374 36 q 320 -15 236 -15 q 210 -15 187 -11 q 25 19 25 197 l 25 224 z"}}}
